<!-- icon666.com - MILLIONS vector ICONS FREE --><svg version="1.1" id="Capa_1" xmlns="http://www.w3.org/2000/svg" xmlns:xlink="http://www.w3.org/1999/xlink" x="0px" y="0px" viewBox="0 0 512 512" style="enable-background:new 0 0 512 512;" xml:space="preserve"><g><g><path d="M437.02,74.981C388.668,26.628,324.381,0,256.001,0S123.333,26.628,74.981,74.981C26.63,123.334,0,187.62,0,256 s26.628,132.667,74.981,181.019C123.334,485.371,187.62,512,256,512s132.667-26.628,181.019-74.981 C485.37,388.667,512,324.38,512,256S485.371,123.334,437.02,74.981z M415.788,415.787 c-42.681,42.681-99.427,66.186-159.786,66.186c-60.36,0-117.106-23.505-159.786-66.186C53.533,373.106,30.028,316.359,30.028,256 S53.533,138.895,96.214,96.213c42.682-42.681,99.428-66.186,159.787-66.186s117.106,23.505,159.787,66.186 c42.681,42.682,66.186,99.428,66.186,159.788C481.973,316.36,458.468,373.106,415.788,415.787z" fill="#000000" style="fill: rgb(255, 255, 255);"></path></g></g><g><g><path d="M337.02,130.19c-7.086-4.306-16.321-2.052-20.627,5.035s-2.051,16.322,5.035,20.627 c16.685,10.138,30.419,24.757,39.719,42.279c9.367,17.651,14.319,38.364,14.319,59.9c0,65.874-53.592,119.466-119.466,119.466 S136.534,323.904,136.534,258.03c0-41.734,21.228-79.761,56.784-101.724c7.054-4.358,9.241-13.608,4.883-20.664 c-4.357-7.054-13.61-9.241-20.663-4.883c-21.294,13.153-39.099,31.592-51.49,53.322c-12.786,22.425-19.544,47.995-19.544,73.948 c0,82.43,67.062,149.493,149.493,149.493s149.493-67.063,149.493-149.493C405.493,204.034,379.896,156.242,337.02,130.19z" fill="#000000" style="fill: rgb(255, 255, 255);"></path></g></g><g><g><path d="M256.001,99.128c-8.292,0-15.014,6.722-15.014,15.014v149.174c0,8.292,6.721,15.014,15.014,15.014 c8.292,0,15.014-6.722,15.014-15.014V114.141C271.015,105.85,264.292,99.128,256.001,99.128z" fill="#000000" style="fill: rgb(255, 255, 255);"></path></g></g></svg>